<svg width="60" height="60" viewBox="0 0 60 60" fill="none" xmlns="http://www.w3.org/2000/svg">
<rect width="60" height="60" rx="4" fill="#623EDA"/>
<path d="M12.1133 15V15.3125C12.1133 15.7422 12.0573 16.1276 11.9453 16.4688C11.8333 16.8099 11.6732 17.1003 11.4648 17.3398C11.2591 17.5794 11.0117 17.763 10.7227 17.8906C10.4336 18.0156 10.1133 18.0781 9.76172 18.0781C9.41276 18.0781 9.09375 18.0156 8.80469 17.8906C8.51823 17.763 8.26953 17.5794 8.05859 17.3398C7.84766 17.1003 7.68359 16.8099 7.56641 16.4688C7.45182 16.1276 7.39453 15.7422 7.39453 15.3125V15C7.39453 14.5703 7.45182 14.1862 7.56641 13.8477C7.68099 13.5065 7.84245 13.2161 8.05078 12.9766C8.26172 12.7344 8.51042 12.5508 8.79688 12.4258C9.08594 12.2982 9.40495 12.2344 9.75391 12.2344C10.1055 12.2344 10.4258 12.2982 10.7148 12.4258C11.0039 12.5508 11.2526 12.7344 11.4609 12.9766C11.6693 13.2161 11.8294 13.5065 11.9414 13.8477C12.056 14.1862 12.1133 14.5703 12.1133 15ZM11.1328 15.3125V14.9922C11.1328 14.6745 11.1016 14.3945 11.0391 14.1523C10.9792 13.9076 10.8893 13.7031 10.7695 13.5391C10.6523 13.3724 10.5078 13.2474 10.3359 13.1641C10.1641 13.0781 9.97005 13.0352 9.75391 13.0352C9.53776 13.0352 9.34505 13.0781 9.17578 13.1641C9.00651 13.2474 8.86198 13.3724 8.74219 13.5391C8.625 13.7031 8.53516 13.9076 8.47266 14.1523C8.41016 14.3945 8.37891 14.6745 8.37891 14.9922V15.3125C8.37891 15.6302 8.41016 15.9115 8.47266 16.1562C8.53516 16.401 8.6263 16.6081 8.74609 16.7773C8.86849 16.944 9.01432 17.0703 9.18359 17.1562C9.35286 17.2396 9.54557 17.2812 9.76172 17.2812C9.98047 17.2812 10.1745 17.2396 10.3438 17.1562C10.513 17.0703 10.6562 16.944 10.7734 16.7773C10.8906 16.6081 10.9792 16.401 11.0391 16.1562C11.1016 15.9115 11.1328 15.6302 11.1328 15.3125ZM14.0742 12.3125V18H13.0938V12.3125H14.0742ZM17.4922 12.3125L15.1875 15.0508L13.875 16.4414L13.7031 15.4688L14.6406 14.3125L16.2969 12.3125H17.4922ZM16.4375 18L14.5664 15.3047L15.2422 14.6367L17.6016 18H16.4375ZM18.1484 12.3125H20.1602C20.5924 12.3125 20.9609 12.3776 21.2656 12.5078C21.5703 12.638 21.8034 12.8307 21.9648 13.0859C22.1289 13.3385 22.2109 13.651 22.2109 14.0234C22.2109 14.3073 22.1589 14.5573 22.0547 14.7734C21.9505 14.9896 21.8034 15.1719 21.6133 15.3203C21.4232 15.4661 21.1966 15.5794 20.9336 15.6602L20.6367 15.8047H18.8281L18.8203 15.0273H20.1758C20.4102 15.0273 20.6055 14.9857 20.7617 14.9023C20.918 14.819 21.0352 14.7057 21.1133 14.5625C21.194 14.4167 21.2344 14.2526 21.2344 14.0703C21.2344 13.8724 21.1953 13.7005 21.1172 13.5547C21.0417 13.4062 20.9245 13.293 20.7656 13.2148C20.6068 13.1341 20.4049 13.0938 20.1602 13.0938H19.1289V18H18.1484V12.3125ZM21.3945 18L20.0586 15.4453L21.0859 15.4414L22.4414 17.9492V18H21.3945ZM7.97656 21.3125H8.85156L10.4961 25.6992L12.1367 21.3125H13.0117L10.8398 27H10.1445L7.97656 21.3125ZM7.57812 21.3125H8.41016L8.55469 25.1094V27H7.57812V21.3125ZM12.5781 21.3125H13.4141V27H12.4336V25.1094L12.5781 21.3125ZM16.8672 26.1523V24.1367C16.8672 23.9857 16.8398 23.8555 16.7852 23.7461C16.7305 23.6367 16.6471 23.5521 16.5352 23.4922C16.4258 23.4323 16.2878 23.4023 16.1211 23.4023C15.9674 23.4023 15.8346 23.4284 15.7227 23.4805C15.6107 23.5326 15.5234 23.6029 15.4609 23.6914C15.3984 23.7799 15.3672 23.8802 15.3672 23.9922H14.4297C14.4297 23.8255 14.4701 23.6641 14.5508 23.5078C14.6315 23.3516 14.7487 23.2122 14.9023 23.0898C15.056 22.9674 15.2396 22.8711 15.4531 22.8008C15.6667 22.7305 15.9062 22.6953 16.1719 22.6953C16.4896 22.6953 16.7708 22.7487 17.0156 22.8555C17.263 22.9622 17.457 23.1237 17.5977 23.3398C17.7409 23.5534 17.8125 23.8216 17.8125 24.1445V26.0234C17.8125 26.2161 17.8255 26.3893 17.8516 26.543C17.8802 26.694 17.9206 26.8255 17.9727 26.9375V27H17.0078C16.9635 26.8984 16.9284 26.7695 16.9023 26.6133C16.8789 26.4544 16.8672 26.3008 16.8672 26.1523ZM17.0039 24.4297L17.0117 25.0117H16.3359C16.1615 25.0117 16.0078 25.0286 15.875 25.0625C15.7422 25.0938 15.6315 25.1406 15.543 25.2031C15.4544 25.2656 15.388 25.3411 15.3438 25.4297C15.2995 25.5182 15.2773 25.6185 15.2773 25.7305C15.2773 25.8424 15.3034 25.9453 15.3555 26.0391C15.4076 26.1302 15.4831 26.2018 15.582 26.2539C15.6836 26.306 15.806 26.332 15.9492 26.332C16.1419 26.332 16.3099 26.293 16.4531 26.2148C16.599 26.1341 16.7135 26.0365 16.7969 25.9219C16.8802 25.8047 16.9245 25.694 16.9297 25.5898L17.2344 26.0078C17.2031 26.1146 17.1497 26.2292 17.0742 26.3516C16.9987 26.474 16.8997 26.5911 16.7773 26.7031C16.6576 26.8125 16.513 26.9023 16.3438 26.9727C16.1771 27.043 15.9844 27.0781 15.7656 27.0781C15.4896 27.0781 15.2435 27.0234 15.0273 26.9141C14.8112 26.8021 14.6419 26.6523 14.5195 26.4648C14.3971 26.2747 14.3359 26.0599 14.3359 25.8203C14.3359 25.5964 14.3776 25.3984 14.4609 25.2266C14.5469 25.0521 14.6719 24.9062 14.8359 24.7891C15.0026 24.6719 15.2057 24.5833 15.4453 24.5234C15.6849 24.4609 15.9583 24.4297 16.2656 24.4297H17.0039ZM19.7305 23.6758V27H18.7891V22.7734H19.6758L19.7305 23.6758ZM19.5625 24.7305L19.2578 24.7266C19.2604 24.4271 19.3021 24.1523 19.3828 23.9023C19.4661 23.6523 19.5807 23.4375 19.7266 23.2578C19.875 23.0781 20.0521 22.9401 20.2578 22.8438C20.4635 22.7448 20.6927 22.6953 20.9453 22.6953C21.1484 22.6953 21.332 22.724 21.4961 22.7812C21.6628 22.8359 21.8047 22.9258 21.9219 23.0508C22.0417 23.1758 22.1328 23.3385 22.1953 23.5391C22.2578 23.737 22.2891 23.9805 22.2891 24.2695V27H21.3438V24.2656C21.3438 24.0625 21.3138 23.9023 21.2539 23.7852C21.1966 23.6654 21.112 23.5807 21 23.5312C20.8906 23.4792 20.7539 23.4531 20.5898 23.4531C20.4284 23.4531 20.2839 23.487 20.1562 23.5547C20.0286 23.6224 19.9206 23.7148 19.832 23.832C19.7461 23.9492 19.6797 24.0846 19.6328 24.2383C19.5859 24.3919 19.5625 24.556 19.5625 24.7305ZM25.6328 26.1523V24.1367C25.6328 23.9857 25.6055 23.8555 25.5508 23.7461C25.4961 23.6367 25.4128 23.5521 25.3008 23.4922C25.1914 23.4323 25.0534 23.4023 24.8867 23.4023C24.7331 23.4023 24.6003 23.4284 24.4883 23.4805C24.3763 23.5326 24.2891 23.6029 24.2266 23.6914C24.1641 23.7799 24.1328 23.8802 24.1328 23.9922H23.1953C23.1953 23.8255 23.2357 23.6641 23.3164 23.5078C23.3971 23.3516 23.5143 23.2122 23.668 23.0898C23.8216 22.9674 24.0052 22.8711 24.2188 22.8008C24.4323 22.7305 24.6719 22.6953 24.9375 22.6953C25.2552 22.6953 25.5365 22.7487 25.7812 22.8555C26.0286 22.9622 26.2227 23.1237 26.3633 23.3398C26.5065 23.5534 26.5781 23.8216 26.5781 24.1445V26.0234C26.5781 26.2161 26.5911 26.3893 26.6172 26.543C26.6458 26.694 26.6862 26.8255 26.7383 26.9375V27H25.7734C25.7292 26.8984 25.694 26.7695 25.668 26.6133C25.6445 26.4544 25.6328 26.3008 25.6328 26.1523ZM25.7695 24.4297L25.7773 25.0117H25.1016C24.9271 25.0117 24.7734 25.0286 24.6406 25.0625C24.5078 25.0938 24.3971 25.1406 24.3086 25.2031C24.2201 25.2656 24.1536 25.3411 24.1094 25.4297C24.0651 25.5182 24.043 25.6185 24.043 25.7305C24.043 25.8424 24.069 25.9453 24.1211 26.0391C24.1732 26.1302 24.2487 26.2018 24.3477 26.2539C24.4492 26.306 24.5716 26.332 24.7148 26.332C24.9076 26.332 25.0755 26.293 25.2188 26.2148C25.3646 26.1341 25.4792 26.0365 25.5625 25.9219C25.6458 25.8047 25.6901 25.694 25.6953 25.5898L26 26.0078C25.9688 26.1146 25.9154 26.2292 25.8398 26.3516C25.7643 26.474 25.6654 26.5911 25.543 26.7031C25.4232 26.8125 25.2786 26.9023 25.1094 26.9727C24.9427 27.043 24.75 27.0781 24.5312 27.0781C24.2552 27.0781 24.0091 27.0234 23.793 26.9141C23.5768 26.8021 23.4076 26.6523 23.2852 26.4648C23.1628 26.2747 23.1016 26.0599 23.1016 25.8203C23.1016 25.5964 23.1432 25.3984 23.2266 25.2266C23.3125 25.0521 23.4375 24.9062 23.6016 24.7891C23.7682 24.6719 23.9714 24.5833 24.2109 24.5234C24.4505 24.4609 24.724 24.4297 25.0312 24.4297H25.7695ZM30.2695 22.7734H31.125V26.8828C31.125 27.263 31.0443 27.5859 30.8828 27.8516C30.7214 28.1172 30.4961 28.319 30.207 28.457C29.918 28.5977 29.5833 28.668 29.2031 28.668C29.0417 28.668 28.862 28.6445 28.6641 28.5977C28.4688 28.5508 28.2786 28.4753 28.0938 28.3711C27.9115 28.2695 27.7591 28.1354 27.6367 27.9688L28.0781 27.4141C28.2292 27.5938 28.3958 27.7253 28.5781 27.8086C28.7604 27.8919 28.9518 27.9336 29.1523 27.9336C29.3685 27.9336 29.5521 27.8932 29.7031 27.8125C29.8568 27.7344 29.9753 27.6185 30.0586 27.4648C30.1419 27.3112 30.1836 27.1237 30.1836 26.9023V23.7305L30.2695 22.7734ZM27.3984 24.9336V24.8516C27.3984 24.5312 27.4375 24.2396 27.5156 23.9766C27.5938 23.7109 27.7057 23.4831 27.8516 23.293C27.9974 23.1003 28.1745 22.9531 28.3828 22.8516C28.5911 22.7474 28.8268 22.6953 29.0898 22.6953C29.3633 22.6953 29.5964 22.7448 29.7891 22.8438C29.9844 22.9427 30.1471 23.0846 30.2773 23.2695C30.4076 23.4518 30.5091 23.6706 30.582 23.9258C30.6576 24.1784 30.7135 24.4596 30.75 24.7695V25.0312C30.7161 25.3333 30.6589 25.6094 30.5781 25.8594C30.4974 26.1094 30.3906 26.3255 30.2578 26.5078C30.125 26.6901 29.9609 26.8307 29.7656 26.9297C29.5729 27.0286 29.3451 27.0781 29.082 27.0781C28.8242 27.0781 28.5911 27.0247 28.3828 26.918C28.1771 26.8112 28 26.6615 27.8516 26.4688C27.7057 26.276 27.5938 26.0495 27.5156 25.7891C27.4375 25.526 27.3984 25.2409 27.3984 24.9336ZM28.3398 24.8516V24.9336C28.3398 25.1263 28.3581 25.306 28.3945 25.4727C28.4336 25.6393 28.4922 25.7865 28.5703 25.9141C28.651 26.0391 28.7526 26.138 28.875 26.2109C29 26.2812 29.1471 26.3164 29.3164 26.3164C29.5378 26.3164 29.7188 26.2695 29.8594 26.1758C30.0026 26.082 30.112 25.9557 30.1875 25.7969C30.2656 25.6354 30.3203 25.4557 30.3516 25.2578V24.5508C30.3359 24.3971 30.3034 24.2539 30.2539 24.1211C30.207 23.9883 30.1432 23.8724 30.0625 23.7734C29.9818 23.6719 29.8802 23.5938 29.7578 23.5391C29.6354 23.4818 29.4909 23.4531 29.3242 23.4531C29.1549 23.4531 29.0078 23.4896 28.8828 23.5625C28.7578 23.6354 28.6549 23.7357 28.5742 23.8633C28.4961 23.9909 28.4375 24.1393 28.3984 24.3086C28.3594 24.4779 28.3398 24.6589 28.3398 24.8516ZM33.9648 27.0781C33.6523 27.0781 33.3698 27.0273 33.1172 26.9258C32.8672 26.8216 32.6536 26.6771 32.4766 26.4922C32.3021 26.3073 32.168 26.0898 32.0742 25.8398C31.9805 25.5898 31.9336 25.3203 31.9336 25.0312V24.875C31.9336 24.5443 31.9818 24.2448 32.0781 23.9766C32.1745 23.7083 32.3086 23.4792 32.4805 23.2891C32.6523 23.0964 32.8555 22.9492 33.0898 22.8477C33.3242 22.7461 33.5781 22.6953 33.8516 22.6953C34.1536 22.6953 34.418 22.7461 34.6445 22.8477C34.8711 22.9492 35.0586 23.0924 35.207 23.2773C35.3581 23.4596 35.4701 23.6771 35.543 23.9297C35.6185 24.1823 35.6562 24.4609 35.6562 24.7656V25.168H32.3906V24.4922H34.7266V24.418C34.7214 24.2487 34.6875 24.0898 34.625 23.9414C34.5651 23.793 34.4727 23.6732 34.3477 23.582C34.2227 23.4909 34.056 23.4453 33.8477 23.4453C33.6914 23.4453 33.5521 23.4792 33.4297 23.5469C33.3099 23.612 33.2096 23.707 33.1289 23.832C33.0482 23.957 32.9857 24.1081 32.9414 24.2852C32.8997 24.4596 32.8789 24.6562 32.8789 24.875V25.0312C32.8789 25.2161 32.9036 25.388 32.9531 25.5469C33.0052 25.7031 33.0807 25.8398 33.1797 25.957C33.2786 26.0742 33.3984 26.1667 33.5391 26.2344C33.6797 26.2995 33.8398 26.332 34.0195 26.332C34.2461 26.332 34.4479 26.2865 34.625 26.1953C34.8021 26.1042 34.9557 25.9753 35.0859 25.8086L35.582 26.2891C35.4909 26.4219 35.3724 26.5495 35.2266 26.6719C35.0807 26.7917 34.9023 26.8893 34.6914 26.9648C34.4831 27.0404 34.2409 27.0781 33.9648 27.0781ZM37.3359 23.5781V27H36.3945V22.7734H37.293L37.3359 23.5781ZM38.6289 22.7461L38.6211 23.6211C38.5638 23.6107 38.5013 23.6029 38.4336 23.5977C38.3685 23.5924 38.3034 23.5898 38.2383 23.5898C38.0768 23.5898 37.9349 23.6133 37.8125 23.6602C37.6901 23.7044 37.5872 23.7695 37.5039 23.8555C37.4232 23.9388 37.3607 24.0404 37.3164 24.1602C37.2721 24.2799 37.2461 24.4141 37.2383 24.5625L37.0234 24.5781C37.0234 24.3125 37.0495 24.0664 37.1016 23.8398C37.1536 23.6133 37.2318 23.4141 37.3359 23.2422C37.4427 23.0703 37.5755 22.9362 37.7344 22.8398C37.8958 22.7435 38.082 22.6953 38.293 22.6953C38.3503 22.6953 38.4115 22.7005 38.4766 22.7109C38.5443 22.7214 38.5951 22.7331 38.6289 22.7461Z" fill="white"/>
<path d="M40.4911 51.4553L32.3661 43.3303C31.878 42.8421 31.878 42.0507 32.3661 41.5625L34.1338 39.7947C34.622 39.3065 35.4135 39.3065 35.9016 39.7947L41.375 45.2681L53.0984 33.5447C53.5865 33.0566 54.378 33.0566 54.8662 33.5447L56.6339 35.3125C57.122 35.8006 57.122 36.5921 56.6339 37.0803L42.2589 51.4553C41.7707 51.9435 40.9792 51.9435 40.4911 51.4553Z" fill="white"/>
</svg>
